<?xml version="1.0" encoding="UTF-8"?>
<svg id="Layer_2" data-name="Layer 2" xmlns="http://www.w3.org/2000/svg" viewBox="0 0 173.61 382.04">
  <defs>
    <style>
      .cls-1 {
        fill: none;
        stroke: #000;
        stroke-linecap: round;
        stroke-linejoin: round;
        stroke-width: 10px;
      }
    </style>
  </defs>
  <g id="Layer_1-2" data-name="Layer 1">
    <path class="cls-1" d="M12.21,241.34c-10.37-17.93-10.48-49.97,5.82-76.13,.86-1.37,6.36-13.62,29.52-30.28,8.22-5.91,19.33-11.92,29.25-17.67,30.7-17.8,103.26-68.08,73.76-103.88-15.93-19.32-52.58-1.98-70.07,19.07-12.52,15.07-18.39,28.27-21.87,44.05-7.13,32.31-4.77,60.71-5.38,96.47-.44,25.95-.21,51.19-.01,70.27,.06,6.03,.83,45.45,1.57,47.44,.36,.97,5.99-61.74,6.53-68.6,2.14-27.05,4.78-41.58,17.64-61.47,7.74-11.97,31.68-27.9,46.84-25.41,37.41,6.14,23.85,47.89,9.17,67.66-7.87,10.6-22.52,25.77-39.18,28.09-5.55,.77-16.84,1.26-21.35-2.13-1.93-1.45,10.36,18.86,30.49,24.05,5.27,1.36,15.95,1.03,23.08-2.15,12.79-5.69,30.44-23.31,40.54-53.83,.36-1.09-1.26,80.11-1.83,88.55-2.92,42.65-10.06,81.64-32.63,89.64-23.97,8.49-38.4-13.09-41.18-17.54-1.93-3.09-7.54-10.36-13.49-33.07"/>
  </g>
</svg>