<svg width="2247" height="6864" viewBox="0 0 2247 6864" fill="none" xmlns="http://www.w3.org/2000/svg">
<path d="M1196.4 351.299C902.89 405.448 417.365 33.6259 417.365 33.6259C169.26 -92.4577 -25.9907 138.385 133.352 686.504C224.352 841.737 661.593 785.205 785.901 820.486C1123.5 864.881 1912.73 1088.3 1722.43 1411.58C1560 1687.5 746.741 1451.6 516.371 1919.55C286.001 2387.5 0.000244141 2080.5 0 2583C-0.00024414 3085.5 408.492 2747.56 607.001 2778.5C833.132 2813.75 931.815 3015.03 1115.4 3155.68C1115.4 3155.68 1521.35 3867.43 1487.92 4069.5C1439.05 4364.81 1227.48 4359.11 1024.39 4579C753.447 4872.37 341.812 5000.62 215.6 5379.5C122.096 5660.19 516.371 5228.5 1115.4 5864.5C1423.38 6191.48 874 6633 1758.5 6840C2273.36 6960.49 1770.68 6597.82 2066.44 6159.5C2388.37 5682.39 2217.68 5713.84 1660.5 5569.5C1218.5 5455 1305.66 4654.18 1660.5 4495.5C2167 4269 2501.96 3352.17 1993.94 3093.28C1485.91 2834.4 784.883 2486.3 1024.39 2231.55C1263.9 1976.79 1820.23 2166.86 2022.94 1780.82C2162.97 1514.13 2066.44 1005.5 2066.44 1005.5C2031.43 941.721 1773.93 473.004 1670.4 389.976C1566.86 306.948 1489.92 297.15 1196.4 351.299Z" fill="#7FA179"/>
</svg>

