<svg width="547" height="109" viewBox="0 0 547 109" fill="none" xmlns="http://www.w3.org/2000/svg">
<path d="M108.507 54.7655C103.894 58.8142 91.0884 63.9886 89.3313 58.3633C88.4188 55.442 90.0596 51.9954 92.0017 48.3729C96.2786 40.3954 71.1303 64.5729 65.783 57.1095C63.9709 54.5804 69.4244 46.242 65.0546 46.242C61.2162 46.242 52.091 53.5042 47.0868 59.6666C41.1834 66.9363 49.6911 38.619 55.5005 27.0001C61.31 15.3811 77.1524 -2.89155 81.6524 2.10848C87.3826 8.47545 73.3314 25 63.5005 33C45.545 47.6115 42.9413 49.6507 27.6656 56.4702C19.4864 60.1217 13.2831 62.9346 6.00013 64C-1.2828 65.0654 3.38894 58.3633 3.38894 58.3633M96.3684 37.5053C96.1788 37.8382 95.6401 38.7838 95.6401 38.7838M126.229 48.3729C126.229 48.3729 138.853 47.0943 147.107 46.4551C155.361 45.8158 168.47 44.3242 168.47 44.3242M209 10.5001C203.217 19.1546 192.989 33.2435 186.92 42.4064C182.284 49.4058 174.187 62.6498 182.065 62.6498C196.145 62.6498 222.607 37.2922 219.451 42.4064C216.295 47.5205 208.526 59.8796 214.838 55.6179C221.15 51.3561 230.861 39.4231 230.861 43.6849C230.861 47.9467 226.977 54.1263 230.861 50.5037C234.745 46.8812 242.756 43.0456 242.999 44.5373C243.364 46.7782 234.191 56.4702 239.289 53.0608C251.485 44.9045 265.334 53.487 275.461 47.5205M223.5 12.5C226.413 17.8272 222.286 21.0235 221.072 22.089M328.938 4.00013C328.938 4.00013 314.13 38.997 309.76 50.7168M297.864 78.2053C302.699 67.3872 305.193 61.6245 309.76 50.7168M309.76 50.7168C321.578 37.4026 338.84 21.7103 353.215 10.5001M309.76 50.7168C315.627 53.7988 324.811 54.9786 328.938 54.9786C333.065 54.9786 339.863 53.9132 348.117 46.4551C356.371 38.9969 341.077 59.0273 346.903 60.0927C352.729 61.1582 361.624 54.1654 369.635 47.1335C377.646 40.1015 359.282 66.308 366.08 60.5546C372.877 54.8012 374.155 52.4668 378.965 50.3335C383.776 48.2001 375.748 59.6666 379.389 56.8964C383.031 54.1263 393.173 47.9797 392.324 50.2887C391.476 52.5977 387.871 60.0927 391.476 60.0927C395.081 60.0927 412.469 59.0801 422.648 42.2268C426.622 35.6463 437.703 18.5468 437.703 18.5468C431.73 32.9432 420.85 42.5 414.878 56.8964C408.905 71.2928 427 45.8158 433.5 47.1335C440 48.4511 436.643 58.6011 430.069 59.9335C423.496 61.2658 446.68 53.4868 450.322 51.9952C453.963 50.5035 456.633 47.1932 454.691 45.8158C452.749 44.4384 448.379 46.8812 446.923 51.143C445.466 55.4048 446.534 60.3058 452.749 58.6011C458.964 56.8964 467.072 53.487 475.084 46.6681C483.095 39.8493 467.476 61.3182 474.113 60.3058C480.749 59.2935 519.5 30 519.5 12.5C519.5 -5 472.5 69.2952 497 60.0927C521.5 50.8903 533.482 32.8172 524.5 45.8158C515.518 58.8144 520.612 62.5 530 56.8964C539.388 51.2928 551.315 33.4569 542.576 45.8158C533.836 58.1747 530.683 89.4601 517.331 103.098C503.979 116.735 473.87 98.662 490.621 80.3362C507.372 62.0103 545 66.6985 545 66.6985M354.672 33.8826C354.672 33.8826 354.454 34.9427 354.186 35.5873C353.895 36.2865 353.215 37.292 353.215 37.292" stroke="black" stroke-width="2"/>
</svg>
