<svg width="466" height="1016" viewBox="0 0 466 1016" fill="none" xmlns="http://www.w3.org/2000/svg">
<path d="M49.6294 159.157C37.6105 186.239 43.3645 229.011 39.667 237.136C35.9694 245.26 37.6105 243.11 30.2168 258.456C27.636 263.813 26.5682 269.202 26.2938 274.705M30.2168 260.262C30.2168 260.262 45.0065 264.775 49.6286 266.581C54.2506 268.386 65.3435 271.094 76.4364 280.121C79.2096 285.538 78.2852 293.662 76.4364 294.565C74.5876 295.468 60.7214 280.121 44.0821 276.511C27.4428 272.9 26.2938 274.705 26.2938 274.705M26.2938 274.705C25.7821 284.968 28.0295 295.625 28.3679 307.203C28.3679 307.203 40.3837 318.938 55.1742 320.744C69.9647 322.549 81.9821 324.355 81.9821 324.355C81.9821 324.355 59.7963 327.063 46.8546 324.355C33.9129 321.647 30.2168 317.133 30.2168 317.133C30.2168 317.133 27.4421 331.576 25.5937 352.339C23.7452 373.101 17.6042 388.433 39.4609 409.21C54.3666 423.38 71.7278 442.994 84.7812 459.762M97.6977 307.203C103.629 323.944 93.0757 352.339 93.0757 352.339C93.0757 352.339 83.1554 381.818 73.6632 399.28C71.9205 402.486 70.934 403.901 69.9655 407.405C68.6453 412.182 68.4221 415.33 69.9655 420.043C73.235 430.026 79.9117 435.47 90.3025 438.097C95.8942 439.511 99.3212 438.314 105.093 438.097C118.919 437.577 143.918 435.389 143.918 435.389M94.9245 448.93C104.594 454.465 121.703 459.308 132.825 460.665C147.616 462.471 151.444 462.291 165.179 462.471C183.603 462.711 195.825 463.217 214.173 461.568M94.9245 448.93C100.34 453.16 103.376 455.532 108.791 459.762C114.206 463.993 130.946 467.442 145.767 468.79C159.804 470.066 181.819 466.984 181.819 466.984C181.819 466.984 205.065 462.076 214.173 461.568M94.9245 448.93C89.5095 444.699 98.7469 468.174 106.942 476.914C114.259 484.719 120.459 487.907 130.976 490.455C144.753 493.792 153.564 490.328 167.028 485.941C178.671 482.148 183.905 477.092 194.76 471.498C202.329 467.597 214.173 461.568 214.173 461.568M214.173 461.568C215.978 461.92 216.345 460.688 216.946 461.568C218.795 464.276 197.534 478.719 180.894 491.357C170.371 499.35 160.951 504.125 146.691 504.898C130.052 505.801 128.493 505.248 117.11 498.579C112.488 495.871 110.639 494.968 106.017 485.039C102.717 477.949 99.9316 465.179 99.9316 465.179M117.11 110.512C117.11 110.512 227.384 280.152 331.619 370.124C364.624 398.612 346.323 427.691 354.471 480.525C362.618 533.359 312.113 621.485 337.516 590.678C346.694 579.547 350.051 571.784 354.471 565.027M341.445 379.773C338.078 395.119 325.995 444.071 315.858 457.957C292.241 490.308 285.352 491.357 237.283 524.758C213.012 541.622 196.54 548.422 185.148 551.022M206.779 107.153C206.779 107.153 238.093 229.053 312.113 278.316C346.023 300.884 387.225 364.87 387.225 409.21C387.225 453.551 373.033 462.437 375.323 488.328C377.613 514.218 360.655 555.572 354.471 565.027M20.0838 310.39C20.0838 310.39 5.01283 245.602 1.71603 207.924C-1.58076 170.246 6.73458 149.592 21.9676 116.026C36.85 83.2335 62.9929 65.7813 97.6977 43.8433C147.645 12.2701 179.635 6.06561 239.027 2.11445C269.699 0.0739253 295.521 -0.0548759 324.633 9.57728C361.213 21.6804 376.13 43.1173 400.495 72.3375C427.791 105.071 429.743 127.572 439.471 168.675C449.124 209.465 448.755 228.588 447.822 270.439C446.63 323.981 449.61 317.603 460.35 370.124C469.042 412.627 436.214 474.863 447.822 516.7C457.447 551.39 465 598.01 465 618.966C465 639.921 454.292 674.699 440.862 689.608C427.433 704.517 421.132 731.77 418.591 760.688C416.324 786.49 428.269 811.284 425.551 826.651C422.833 842.018 414.567 849.975 418.591 866C422.615 882.025 449.831 932.407 440.908 925.273C431.985 918.14 403.279 882.961 403.279 866C403.279 849.039 403.806 904.847 394.232 927.059C384.407 949.849 344.817 998.294 354.471 977.107C364.124 955.92 364.124 930.451 354.471 908.741C347.462 892.98 359.259 875.234 355.952 838.184M84.7812 459.762C90.8684 467.582 96.0188 474.783 99.5466 480.525C106.633 492.059 106.66 505.479 110.025 516.7C111.927 523.043 114.895 528.683 120.808 532.883C141.145 547.326 154.78 552.081 163.729 552.081C167.693 552.081 173.978 553.57 185.148 551.022M84.7812 459.762C84.7812 459.762 71.0233 494.824 60.8128 516.7C48.3098 543.489 28.0058 556.216 25.5937 583.785C23.1816 611.355 24.8013 668.558 30.2168 711.983C35.6322 755.407 55.1499 746.444 69.9655 787.798C84.7812 829.152 53.2075 707.564 60.8128 656.844C65.6906 624.315 71.1119 606.023 84.7812 575.974C81.6744 604.685 76.9738 620.622 76.8257 649.492C76.6006 693.394 97.4369 716.931 93.7806 760.688C90.0046 805.877 60.6849 825.804 56.5741 870.965C52.7876 912.565 60.6652 963.29 69.9655 977.107C79.2659 990.924 84.4802 998.671 93.7806 1012.49C103.081 1026.3 101.243 942.04 113.561 898.535C125.421 856.649 136.639 828.692 154.535 794.69C172.432 760.688 165.153 728.065 154.535 694.981C143.918 661.898 183.381 621.863 185.148 572.758C185.454 564.275 185.148 551.022 185.148 551.022M394.232 680.788C368.167 707.833 403.279 709.961 355.952 788.659C344.121 808.333 354.704 824.199 355.952 838.184M354.471 565.027C354.471 565.027 361.938 613.615 341.445 649.492C320.952 685.369 320.639 699.274 315.858 740.49C311.077 781.706 288.769 799.094 282.874 821.223C276.979 843.352 278.583 864.28 293.314 892.459C306.309 917.317 347.601 992.188 337.516 949.447C332.944 930.07 338.331 918.401 337.516 898.535C336.272 868.212 355.952 838.184 355.952 838.184M123.581 282.83C124.506 286.44 131.901 296.37 136.523 298.176C141.145 299.981 169.842 292.291 191.063 294.565C214.782 297.107 248.376 314.425 249.3 312.619C250.225 310.814 223.417 281.927 217.871 280.121C212.324 278.316 188.578 277.732 169.801 278.316C151.67 278.88 122.657 279.219 123.581 282.83ZM152.238 337.895C169.801 339.701 169.219 340.716 181.625 340.716C202.819 340.716 243.754 337.895 240.981 338.798C226.79 343.418 212.553 346.481 197.638 347.609C180.722 348.887 171.649 349.27 155.011 346.02C150.389 345.117 147.55 337.414 152.238 337.895Z" stroke="black" stroke-width="2"/>
</svg>
