<svg width="101" height="57" viewBox="0 0 101 57" fill="none" xmlns="http://www.w3.org/2000/svg">
<path d="M24.8753 3.5C13.8752 14.4999 7.87533 27 3.87533 36.6849C0.670431 44.4447 -1.43754 55.6498 6.44021 55.6498C20.5207 55.6498 46.9822 30.2922 43.8262 35.4064C40.6703 40.5205 32.9017 52.8796 39.2137 48.6179C45.5256 44.3561 54.3753 33.5 55.2362 36.6849C56.0971 39.8698 52.4911 45.1225 56.3753 41.5C60.2596 37.8775 66.1326 35.1933 66.3753 36.6849C66.7401 38.9259 63.2772 44.9094 68.3753 41.5C80.5715 33.3436 89.709 46.487 99.8361 40.5205M39.8753 1C41.3753 6.5 38.6615 9.52355 37.4477 10.589" stroke="black" stroke-width="2"/>
</svg>
