<svg width="250" height="106" viewBox="0 0 250 106" fill="none" xmlns="http://www.w3.org/2000/svg">
<path d="M32.0741 1C32.0741 1 17.2654 35.9968 12.8956 47.7167M1 75.2052C5.83511 64.387 8.32892 58.6243 12.8956 47.7167M12.8956 47.7167C24.714 34.4025 41.9755 18.7101 56.3507 7.5M12.8956 47.7167C18.7631 50.7986 27.9471 51.9785 32.0741 51.9785C36.2012 51.9785 42.9986 50.913 51.2527 43.4549C59.5067 35.9968 44.2124 56.0272 50.0388 57.0926C55.8652 58.158 64.7594 51.1653 72.7707 44.1333C80.782 37.1014 62.418 63.3079 69.2155 57.5545C76.0129 51.8011 77.2903 49.4667 82.1009 47.3333C86.9115 45.2 78.8835 56.6664 82.525 53.8963C86.1665 51.1261 96.3083 44.9796 95.4601 47.2886C94.6119 49.5976 91.007 57.0926 94.6119 57.0926C98.2167 57.0926 115.605 56.08 125.783 39.2266C129.757 32.6461 140.839 15.5467 140.839 15.5467C134.866 29.9431 123.986 39.4998 118.013 53.8963C112.041 68.2927 130.136 42.8157 136.636 44.1333C143.136 45.451 139.779 55.601 133.205 56.9333C126.631 58.2657 149.816 50.4866 153.457 48.995C157.099 47.5034 159.769 44.1931 157.827 42.8157C155.885 41.4382 151.515 43.8811 150.059 48.1429C148.602 52.4047 149.67 57.3057 155.885 55.601C162.1 53.8963 170.208 50.4869 178.219 43.668C186.231 36.8492 170.612 58.3181 177.248 57.3057C183.885 56.2933 222.636 26.9999 222.636 9.49987C222.636 -8.00013 175.636 66.295 200.136 57.0926C224.636 47.8902 236.618 29.817 227.636 42.8157C218.653 55.8143 223.747 59.4999 233.136 53.8963C242.524 48.2927 254.451 30.4567 245.711 42.8157C236.972 55.1746 233.819 86.4599 220.467 100.097C207.115 113.735 177.006 95.6619 193.756 77.336C210.507 59.0102 248.136 63.6984 248.136 63.6984M57.8073 30.8825C57.8073 30.8825 57.5898 31.9425 57.3218 32.5872C57.0312 33.2864 56.3507 34.2919 56.3507 34.2919" stroke="black" stroke-width="2"/>
</svg>
