<svg width="102" height="65" viewBox="0 0 102 65" fill="none" xmlns="http://www.w3.org/2000/svg">
<path d="M100.586 54.2388C95.9739 58.2875 85.5864 64.7388 86.5864 58.1021C87.0424 55.0757 91.1443 50.3613 93.0864 46.7388C97.3634 38.7613 70.2167 64.3117 64.8694 56.8483C63.0573 54.3191 68.5109 45.9807 64.1411 45.9807C60.3026 45.9807 51.1775 53.2429 46.1733 59.4053C40.2698 66.6751 48.7775 38.3578 54.5869 26.7388C60.3964 15.1199 76.2388 -3.15278 80.7388 1.84725C86.469 8.21422 72.4179 24.7388 62.5869 32.7388C44.6314 47.3503 42.0278 49.3895 26.7521 56.209C18.5728 59.8605 12.3695 62.6733 5.08656 63.7388C-2.19638 64.8042 2.47536 58.1021 2.47536 58.1021M99.5864 36.2388C99.3968 36.5716 98.218 38.2335 98.218 38.2335" stroke="black" stroke-width="2"/>
</svg>
